<svg width="172" height="176" viewBox="0 0 172 176" fill="none" xmlns="http://www.w3.org/2000/svg">
<path fill-rule="evenodd" clip-rule="evenodd" d="M171.993 88.9933C171.96 91.7332 171.804 94.443 171.531 97.1171L75.1119 0.697693C77.7235 0.360504 80.3716 0.143005 83.0507 0.0507202L171.993 88.9933ZM66.6482 2.23398C69.0188 1.67691 71.4268 1.21994 73.8678 0.867737L171.392 98.3919C171.1 100.894 170.706 103.365 170.212 105.798L66.6482 2.23398ZM122.886 8.47131C140.184 16.877 154.301 31.0115 162.889 48.4749L122.886 8.47131ZM107.071 2.65729C111.617 3.82715 116.018 5.36676 120.243 7.24295L164.149 51.1491C166.079 55.4286 167.681 59.8935 168.925 64.5107L107.071 2.65729ZM169.967 106.967C169.467 109.277 168.878 111.552 168.204 113.789L58.8751 4.46088C61.0495 3.72293 63.2623 3.07129 65.5099 2.50989L169.967 106.967ZM51.6879 7.27371C53.6949 6.38031 55.7418 5.5629 57.825 4.82501L167.87 114.87C167.194 117.016 166.439 119.125 165.609 121.194L51.6879 7.27371ZM169.415 66.4152C170.257 69.8424 170.902 73.3495 171.337 76.9232L94.8767 0.462463C98.3838 0.829987 101.829 1.41287 105.198 2.19797L169.415 66.4152ZM86 0C88.4633 0 90.9025 0.105835 93.3133 0.313293L171.517 78.5171C171.826 81.4979 171.989 84.5232 172 87.5853L84.4286 0.0143738C84.9513 0.00479126 85.4751 0 86 0ZM27.6951 23.2809C29.1712 21.8889 30.6952 20.549 32.2642 19.2642L154.3 141.3C153.077 142.931 151.799 144.517 150.469 146.055L27.6951 23.2809ZM37.9716 14.9716C36.2863 16.1332 34.6434 17.3542 33.0459 18.6317L154.902 140.487C156.117 138.828 157.276 137.123 158.376 135.376L37.9716 14.9716ZM50.7144 7.71442C48.7758 8.60684 46.8755 9.57056 45.0165 10.6023L162.498 128.083C163.466 126.162 164.368 124.199 165.199 122.199L50.7144 7.71442ZM162.019 129.019L44.1117 11.1117C42.3043 12.1437 40.5371 13.2405 38.8131 14.3989L158.918 134.504C160.014 132.718 161.048 130.888 162.019 129.019ZM145.63 151.215C147.072 149.797 148.466 148.327 149.809 146.809L26.9713 23.9713C25.5155 25.3759 24.1077 26.8319 22.7506 28.3364L145.63 151.215ZM144.913 151.913C143.451 153.318 141.94 154.672 140.385 155.971L18.2115 33.7973C19.449 32.1798 20.7408 30.6078 22.084 29.084L144.913 151.913ZM133.893 160.893C132.185 162.066 130.433 163.178 128.64 164.226L10.3897 45.9755C11.3761 44.121 12.4259 42.3069 13.5361 40.5361L133.893 160.893ZM134.728 160.313L14.0854 39.6712C15.2004 37.938 16.3737 36.2475 17.6026 34.6026L139.61 156.61C138.027 157.901 136.399 159.137 134.728 160.313ZM127.743 164.743L9.90329 46.9033C8.91897 48.8081 8.00112 50.7543 7.15291 52.7387L122.094 167.68C124.017 166.77 125.901 165.79 127.743 164.743ZM121.129 168.129L6.73446 53.7345C5.88718 55.7857 5.1139 57.8767 4.41807 60.0039L115.047 170.633C117.112 169.875 119.141 169.04 121.129 168.129ZM114.006 171.006L4.07515 61.0752C3.38128 63.2912 2.77113 65.5456 2.24848 67.8343L107.435 173.02C109.661 172.437 111.853 171.764 114.006 171.006ZM106.307 173.307C103.962 173.888 101.579 174.37 99.1631 174.749L0.737633 76.3234C1.05627 73.8457 1.47591 71.4005 1.99218 68.9922L106.307 173.307ZM97.9327 174.933L0.584518 77.5845C0.282623 80.227 0.0954399 82.9053 0.0281792 85.614L90.0885 175.674C92.7363 175.548 95.3528 175.299 97.9327 174.933ZM88.7285 175.729C87.8225 175.757 86.9129 175.772 86 175.772C83.9741 175.772 81.9646 175.7 79.9737 175.56L0.356499 95.9423C0.120556 93.2891 0 90.6019 0 87.886C0 87.5917 0.00141525 87.2978 0.00423813 87.0042L88.7285 175.729ZM66.5039 173.504C62.1433 172.471 57.9097 171.099 53.8313 169.417L6.93636 122.522C5.20012 118.389 3.7652 114.092 2.65985 109.66L66.5039 173.504ZM68.329 173.915L2.21803 107.804C1.45585 104.442 0.882397 101.007 0.509697 97.5097L78.4367 175.437C75.0058 175.131 71.6326 174.62 68.329 173.915ZM51.3444 168.344L8.04057 125.041C16.8442 144.299 32.2796 159.756 51.3444 168.344Z" fill="url(#paint0_linear_25_161)" fill-opacity="0.5"/>
<defs>
<linearGradient id="paint0_linear_25_161" x1="28.2895" y1="22.357" x2="141.244" y2="154.085" gradientUnits="userSpaceOnUse">
<stop stop-color="#FEAC5E"/>
<stop offset="0.526042" stop-color="#C779D0"/>
<stop offset="1" stop-color="#4BC0C8"/>
</linearGradient>
</defs>
</svg>
